<svg version="1.1" xmlns="http://www.w3.org/2000/svg" xmlns:xlink="http://www.w3.org/1999/xlink" width="118" height="118" viewBox="0,0,118,118"><g transform="translate(-165,-137)"><g data-paper-data="{&quot;isPaintingLayer&quot;:true}" fill-rule="nonzero" stroke-linejoin="miter" stroke-miterlimit="10" stroke-dasharray="" stroke-dashoffset="0" style="mix-blend-mode: normal"><path d="M165,196c0,-32.5848 26.4152,-59 59,-59c32.5848,0 59,26.4152 59,59c0,32.5848 -26.4152,59 -59,59c-32.5848,0 -59,-26.4152 -59,-59z" fill="#dae7f5" stroke="none" stroke-width="0" stroke-linecap="butt"/><path d="M251.48285,212.10755c0.29187,16.4099 -11.77667,29.9316 -26.95584,30.20157c-15.17916,0.26997 -27.72088,-12.81403 -28.01274,-29.22393c-0.29187,-16.4099 27.35617,-63.39841 27.35617,-63.39841c0,0 27.32056,46.01088 27.61242,62.42077z" data-paper-data="{&quot;origRot&quot;:0}" fill="#66b3ff" stroke="none" stroke-width="0" stroke-linecap="butt"/><path d="M231.19363,236.79889c0,0 10.2987,-7.155 12.63266,-12.27634c2.2682,-4.97705 1.17944,-18.98279 1.17944,-18.98279c0,0 -1.36211,9.54367 -3.5804,14.56402c-2.37504,5.37512 -10.23171,16.69511 -10.23171,16.69511z" fill="#dae7f5" stroke="#dae7f5" stroke-width="1.5" stroke-linecap="round"/><path d="M204.49194,152.72924c0,0 -8.39044,4.83039 -14.66685,10.82168c-1.15072,1.09844 -2.13442,2.17193 -2.85117,3.1744c-2.50518,3.50378 -5.77054,9.15937 -6.95093,12.40205c-2.49202,6.84593 -3.69159,15.94046 -3.62569,20.22393c0.05761,3.74463 2.18027,13.32222 4.89296,19.20657c4.92052,10.67362 13.68556,16.9617 13.68556,16.9617" fill="none" stroke="#9bc6f5" stroke-width="1.5" stroke-linecap="round"/><path d="M183.88934,225.02827l-6.73318,-3.7068l3.21257,-5.83543l6.73318,3.70681z" fill="#4d9ef5" stroke="none" stroke-width="0" stroke-linecap="butt"/><path d="M177.7374,204.39395l-5.4393,-5.43049l4.70643,-4.71406l5.43929,5.43049z" fill="#4d9ef5" stroke="none" stroke-width="0" stroke-linecap="butt"/><path d="M175.1298,183.29613l-0.27156,-7.6813l6.65713,-0.23535l0.27156,7.6813z" fill="#4d9ef5" stroke="none" stroke-width="0" stroke-linecap="butt"/><path d="M185.59754,168.07032l-0.27157,-7.6813l6.65714,-0.23535l0.27156,7.6813z" fill="#4d9ef5" stroke="none" stroke-width="0" stroke-linecap="butt"/><path d="M243.46098,185.12052l-20.48949,-20.45631l17.72883,-17.75755l20.48949,20.4563z" fill="#4d9ef5" stroke="none" stroke-width="0" stroke-linecap="butt"/><path d="M254.19283,163.9623c0,0 2.17636,2.37751 0.44268,4.02746c-1.68483,1.60346 -6.09539,8.01539 -6.09539,8.01539c0,0 6.5724,-5.9279 8.24442,-7.55636c1.79017,-1.74354 -2.5917,-4.48648 -2.5917,-4.48648z" fill="#dae7f5" stroke="#dae7f5" stroke-width="1.5" stroke-linecap="round"/><text transform="translate(238.52003,204.08889) scale(0.47581,0.47581)" font-size="40" xml:space="preserve" fill="#4287d0" fill-rule="nonzero" stroke="#4287d0" stroke-width="2" stroke-linecap="butt" stroke-linejoin="miter" stroke-miterlimit="10" stroke-dasharray="" stroke-dashoffset="0" font-family="Sans Serif" font-weight="normal" text-anchor="start" style="mix-blend-mode: normal"><tspan x="0" dy="0">𝗛𝟮𝟬</tspan></text><path d="M224.95162,198.06182l-17.12904,18.55646l-19.03225,-18.08065l17.12903,-20.93548z" fill="none" stroke="#f5f5f5" stroke-width="2.5" stroke-linecap="round"/><path d="M205.5625,178.4348v-5.94758l-3.56855,-3.09274l2.61693,-3.33064l3.56855,2.85483l-2.85484,3.80645" fill="none" stroke="#f5f5f5" stroke-width="2.5" stroke-linecap="round"/><path d="M207.70363,216.49932v4.28226l-2.85484,3.33065l2.85484,2.85484l3.33065,-3.33065l-2.37904,-2.37903" fill="none" stroke="#f5f5f5" stroke-width="2.5" stroke-linecap="round"/><path d="M224.35686,198.65658l4.75807,-5.23387l-1.42742,-3.56855l4.04435,-1.42742l1.42742,3.80645l-4.04435,1.18952" fill="none" stroke="#f5f5f5" stroke-width="2.5" stroke-linecap="round"/><path d="M229.11492,202.46303l3.56855,0.47581l-1.42742,4.28225l-4.04435,-1.42742l1.90323,-3.33065l-5.23387,-5.70967" fill="none" stroke="#f5f5f5" stroke-width="2.5" stroke-linecap="round"/><path d="M226.97379,206.03158l-11.41935,10.94355" fill="none" stroke="#f5f5f5" stroke-width="2.5" stroke-linecap="round"/><path d="M227.2117,189.61625l-14.27419,-13.08468" fill="none" stroke="#f5f5f5" stroke-width="2.5" stroke-linecap="round"/></g></g></svg>