<svg version="1.1" xmlns="http://www.w3.org/2000/svg" xmlns:xlink="http://www.w3.org/1999/xlink" width="117.67952" height="117.668" viewBox="0,0,117.67952,117.668"><defs><linearGradient x1="240" y1="121.16024" x2="240" y2="238.78776" gradientUnits="userSpaceOnUse" id="color-1"><stop offset="0" stop-color="#56cadb"/><stop offset="1" stop-color="#66c0ff"/></linearGradient></defs><g transform="translate(-181.16024,-121.16024)"><g data-paper-data="{&quot;isPaintingLayer&quot;:true}" fill-rule="nonzero" stroke-linecap="butt" stroke-linejoin="miter" stroke-miterlimit="10" stroke-dasharray="" stroke-dashoffset="0" style="mix-blend-mode: normal"><path d="M181.16024,180c0,-32.4963 26.34346,-58.83976 58.83976,-58.83976c32.4963,0 58.83976,26.34346 58.83976,58.83976c0,31.31223 -24.45869,56.91184 -55.31305,58.73581c-1.64826,-0.0572 -3.27578,0.04109 -4.9674,0.0371l-0.45425,-0.17034c-0.05759,-0.02314 -0.12048,-0.03588 -0.18635,-0.03588c-0.17286,0 -0.32523,0.08772 -0.41503,0.22107c-31.33844,-1.30798 -56.34344,-27.12775 -56.34344,-58.78776z" fill="url(#color-1)" stroke="none" stroke-width="0"/><path d="M185.56108,200.77281c-0.21423,-1.85938 1.62443,-2.33136 6.51008,-2.91008c15.31765,-1.81444 43.78479,-4.59186 45.88519,-4.82124c25.14803,-2.74638 61.58376,0.57918 55.8631,10.71299c-4.22063,9.61318 -19.43837,33.18336 -50.29274,35.00733c-1.64826,-0.0572 -3.27578,0.04109 -4.9674,0.03709l-0.45425,-0.17034c-0.05759,-0.02314 -0.12048,-0.03588 -0.18635,-0.03588c-0.17286,0 -0.32523,0.08772 -0.41503,0.22108c-31.33844,-1.30798 -50.68522,-27.12776 -51.94261,-38.04095z" fill="#39db3c" stroke="none" stroke-width="0"/><path d="M216.87508,169.44956c-0.88388,0.88388 -1.76777,0 -1.76777,0l-0.94304,-0.94304c-2.41199,-2.48168 -3.61362,0.11187 -6.42402,0.6579c-2.1265,0.41315 -2.79392,-0.74805 -4.31006,-1.71142c-1.8291,-1.16223 -4.18326,1.1995 -4.86734,2.61472c0,0 -0.55902,1.11803 -1.67706,0.55902c-1.11803,-0.55901 -0.55901,-1.67705 -0.55901,-1.67705c1.44076,-2.81056 5.05224,-5.42551 8.33516,-3.67219c0.92078,0.49176 1.31629,1.7829 2.60554,1.43203c3.63868,-0.99028 5.28417,-3.28077 8.66456,0.02922l0.94304,0.94304c0,0 0.88388,0.88388 0,1.76776z" fill="#272727" stroke="none" stroke-width="0.5"/><path d="M272.95242,191.29558c-1.04007,0.69338 -1.73344,-0.34669 -1.73344,-0.34669l-0.66049,-0.9933c-0.95158,-1.92024 -2.86245,-1.43951 -4.59918,-0.4984c-0.51033,0.27654 -0.77956,1.04986 -1.35868,1.08915c-1.7883,0.12133 -3.14224,-1.77693 -4.22757,-2.86474c-0.54086,-0.5421 -0.5593,-1.86586 -1.325,-1.8767c-1.57644,-0.02233 -4.71702,3.29325 -5.81193,4.16932c0,0 -0.97609,0.78087 -1.75696,-0.19521c-0.78087,-0.97609 0.19522,-1.75696 0.19522,-1.75696c1.8226,-1.45785 5.36368,-4.97736 8.01927,-4.63235c0.46089,0.05988 2.84931,2.91917 3.39019,3.46717c0.38751,0.39262 0.61412,1.45003 1.11631,1.22175c1.99545,-0.90706 4.53987,-3.27486 7.2072,-1.35964c0.63387,0.45514 0.86322,1.30025 1.29484,1.95038l0.59689,0.89279c0,0 0.69338,1.04006 -0.34669,1.73344z" fill="#272727" stroke="none" stroke-width="0.5"/><path d="M227.37232,188.78081c-1.04006,0.69338 -1.73344,-0.34669 -1.73344,-0.34669l-0.61267,-0.91958c-0.59954,-0.85648 -0.90711,-1.91894 -1.61384,-2.68933c-0.18033,-0.19657 -4.13442,2.87409 -4.39183,2.89202c-2.76655,0.19271 -2.39654,-2.157 -3.9027,-3.25928c-1.07143,-0.78412 -4.56578,2.48057 -5.29224,3.02542c0,0 -1,0.75 -1.75,-0.25c-0.75,-1 0.25,-1.75 0.25,-1.75c1.87835,-1.40876 5.2351,-4.65607 7.91027,-3.26149c0.63101,0.32895 0.94082,1.06868 1.38402,1.62542c0.35757,0.44917 0.49744,1.67946 1.00019,1.40221c1.25115,-0.68997 3.69354,-3.78836 5.66723,-2.7662c0.47989,0.24854 2.1623,2.70516 2.78698,3.59758l0.64472,0.96649c0,0 0.69338,1.04006 -0.34669,1.73344z" fill="#272727" stroke="none" stroke-width="0.5"/><path d="M264.33074,158.36727c-1.11804,0.55901 -1.67705,-0.55902 -1.67705,-0.55902l-0.52471,-1.08551c-2.11225,-2.32814 -3.69192,1.89303 -6.29683,1.08366c-1.70837,-0.53081 -2.17113,-3.0299 -3.6243,-3.41839c-1.28643,-0.34392 -3.48641,2.07323 -4.21256,2.80208c0,0 -0.88388,0.88388 -1.76776,0c-0.88388,-0.88388 0,-1.76777 0,-1.76777c1.43496,-1.43013 4.11586,-4.06099 6.47519,-3.48484c1.55959,0.38085 2.18464,1.80273 3.1373,2.84245c0.3047,0.33255 0.81012,0.96229 1.16644,0.68577c2.62565,-2.03766 4.50395,-2.74876 7.15063,-0.20472l0.73267,1.42925c0,0 0.55902,1.11804 -0.55901,1.67705z" fill="#272727" stroke="none" stroke-width="0.5"/><path d="M237.59894,238.57824c0,-0.08577 0.02942,-0.14211 0.06808,-0.17912c-0.56835,-6.08944 -1.67616,-11.98051 -2.20512,-18.14113c-0.7336,-8.54381 0.10484,-17.23453 0.10484,-25.80412l-0.51083,-1.67401c0,0 -0.72761,-2.91043 2.18282,-3.63804c2.91043,-0.72761 3.63804,2.18282 3.63804,2.18282l0.68998,3.12923c0,8.40624 -0.84101,16.94416 -0.12409,25.32395c0.54987,6.4271 1.71998,12.58583 2.27294,18.96525c-1.68653,-0.07099 -3.34801,0.03077 -5.07504,0.02997c-0.07226,0.05522 -0.1636,0.05522 -0.1636,0.05522c-0.18607,0 -0.37216,0 -0.55823,0h-0.06978c0,0 -0.25,0 -0.25,-0.25z" fill="#000000" stroke="none" stroke-width="0.5"/><path d="M238.24006,157.73858c-1.11803,0.55901 -1.67705,-0.55901 -1.67705,-0.55901l-0.62869,-1.25738c-1.06184,-3.05097 -3.72021,1.45312 -4.96865,1.61788c-1.6675,0.22007 -2.61928,-1.63456 -4.1251,-1.8793c-1.12068,-0.18214 -2.0264,1.01318 -2.86942,1.64544c0,0 -1,0.75 -1.75,-0.25c-0.75,-1 0.25,-1.75 0.25,-1.75c2.02816,-1.52112 3.65635,-2.9646 6.31674,-1.7004c0.69375,0.32966 1.02482,1.62051 1.77732,1.46654c0.70145,-0.14353 0.76359,-1.26332 1.35542,-1.66627c2.4677,-1.68013 4.85262,-1.02582 6.24976,1.39807l0.62869,1.25738c0,0 0.55902,1.11804 -0.55901,1.67705z" fill="#272727" stroke="none" stroke-width="0.5"/><path d="" fill="#000000" stroke="none" stroke-width="0.5"/><path d="M243.55747,155.02606c-0.06903,6.38284 -2.67668,18.86695 -5.76731,18.83353c-3.09063,-0.03342 -5.49391,-12.57173 -5.42488,-18.95456c0.06903,-6.38283 2.63044,-11.53006 5.72108,-11.49663c3.09063,0.03342 5.54014,5.23483 5.47111,11.61766z" fill="#ff8000" stroke="#000000" stroke-width="0"/><path d="M256.4774,165.8108c-4.66757,4.35421 -12.09241,5.64567 -14.20077,3.38559c-2.10835,-2.26009 1.89817,-7.21588 6.56574,-11.57009c4.66757,-4.35421 10.16054,-6.05184 12.2689,-3.79175c2.10836,2.26009 0.0337,7.62204 -4.63387,11.97625z" fill="#ff8000" stroke="#000000" stroke-width="0"/><path d="M258.20463,182.01672c-6.38269,0.08134 -14.08032,-2.12869 -14.11972,-5.21926c-0.0394,-3.09056 7.59438,-5.89133 13.97707,-5.97268c6.38268,-0.08134 11.58881,2.35811 11.6282,5.44867c0.0394,3.09056 -5.10287,5.66191 -11.48556,5.74326z" fill="#ff8000" stroke="#000000" stroke-width="0"/><path d="M258.95371,198.76499c-2.10836,2.26009 -7.60133,0.56245 -12.2689,-3.79175c-4.66757,-4.35421 -8.67409,-9.31 -6.56574,-11.57009c2.10835,-2.26009 9.5332,-0.96862 14.20077,3.38559c4.66757,4.35421 6.74223,9.71616 4.63387,11.97625z" data-paper-data="{&quot;index&quot;:null}" fill="#ff8000" stroke="#000000" stroke-width="0"/><path d="M213.38758,152.36965c2.10835,-2.26009 7.60133,-0.56245 12.2689,3.79175c4.66757,4.35421 8.67409,9.31 6.56574,11.57009c-2.10835,2.26009 -9.5332,0.96862 -14.20077,-3.38559c-4.66757,-4.35421 -6.74222,-9.71617 -4.63387,-11.97625z" data-paper-data="{&quot;index&quot;:null}" fill="#ff8000" stroke="#000000" stroke-width="0"/><path d="M204.80867,174.80856c0.0394,-3.09056 5.24552,-5.53002 11.62821,-5.44867c6.38269,0.08134 14.01647,2.88211 13.97707,5.97268c-0.0394,3.09056 -7.73703,5.3006 -14.11971,5.21926c-6.38269,-0.08134 -11.52496,-2.65269 -11.48556,-5.74326z" data-paper-data="{&quot;index&quot;:null}" fill="#ff8000" stroke="#000000" stroke-width="0"/><path d="M220.17901,185.32384c4.66757,-4.35421 12.09242,-5.64568 14.20077,-3.38559c2.10835,2.26009 -1.89817,7.21588 -6.56574,11.57009c-4.66757,4.35421 -10.16055,6.05184 -12.2689,3.79175c-2.10835,-2.26009 -0.0337,-7.62204 4.63387,-11.97625z" data-paper-data="{&quot;index&quot;:null}" fill="#ff8000" stroke="#000000" stroke-width="0"/><path d="M220.84522,175.45483c0,-9.24496 7.49452,-16.73947 16.73947,-16.73947c9.24496,0 16.73947,7.49452 16.73947,16.73947c0,9.24496 -7.49451,16.73946 -16.73947,16.73946c-9.24496,0 -16.73947,-7.49451 -16.73947,-16.73946z" fill="#ecdd00" stroke="#000000" stroke-width="0"/><path d="M209.78523,156.86336c-1.18586,0.39529 -1.58114,-0.79057 -1.58114,-0.79057l-0.24652,-0.7793c-0.35833,-0.72541 -0.43975,-1.56718 -0.80006,-2.29162c-0.47235,-0.94972 -4.22597,3.6278 -4.48108,3.60625c-2.57713,-0.21773 -1.17732,-6.33876 -4.41261,-3.44409c-0.54979,0.49191 -1.03302,1.15029 -1.17805,1.87362c0,0 -0.30317,1.21267 -1.51585,0.9095c-1.21268,-0.30317 -0.9095,-1.51585 -0.9095,-1.51585c0.66888,-2.39078 2.68187,-4.78925 5.4519,-4.39526c2.03572,0.28954 2.09641,0.52356 2.9057,2.37868c0.04036,0.09251 0.07856,0.21412 0.11129,0.35011c0.20064,-0.27928 0.4299,-0.54397 0.60115,-0.73543c0.87424,-0.97743 1.75313,-1.91164 3.28113,-1.68092c2.50027,0.37753 2.29633,2.08125 3.18206,3.82698l0.38216,1.10677c0,0 0.39529,1.18586 -0.79057,1.58114z" fill="#272727" stroke="none" stroke-width="0.5"/><path d="M231.6388,142.33565c-1.11803,0.55901 -1.67705,-0.55901 -1.67705,-0.55901l-0.31435,-0.6287c-0.38629,-0.79916 -1.95704,-3.3955 -2.96846,-3.3955c-2.40913,0 -0.08738,3.9007 -4.10582,3.0981c-2.37486,-0.47433 -1.3525,-2.90202 -2.38907,-3.84115c-0.39379,-0.35676 -0.88683,0.58567 -1.33527,0.87071c-1.40628,0.89388 -2.6602,2.07985 -3.99366,3.08014c0,0 -1,0.75 -1.75,-0.25c-0.75,-1 0.25,-1.75 0.25,-1.75c1.60005,-1.19979 5.46728,-5.33717 7.87358,-4.22214c0.68249,0.31625 0.88782,1.21988 1.24667,1.88096c0.23752,0.43757 0.33919,0.93664 0.53194,1.39569c0.06605,0.1573 0.2472,0.60156 0.27299,0.43292c0.93887,-6.13972 7.0356,-1.47568 8.60317,1.58225l0.31435,0.62869c0,0 0.55902,1.11804 -0.55901,1.67705z" fill="#272727" stroke="none" stroke-width="0.5"/><path d="M257.72947,135.1057c-1.11804,0.55901 -1.67705,-0.55901 -1.67705,-0.55901l-0.19631,-0.43771c-0.54501,-0.73124 -1.52356,-3.38069 -2.7993,-2.99123c-1.46388,0.4469 -1.70286,3.02814 -3.25387,3.16433c-1.82204,0.15999 -3.78529,-3.07661 -4.02987,-4.45242c-0.10187,-0.57307 -0.47808,1.0807 -0.86082,1.51922c-0.65428,0.74965 -1.31667,1.54409 -1.66979,2.47434c0,0 -0.46424,1.1606 -1.62483,0.69636c-1.1606,-0.46424 -0.69636,-1.62483 -0.69636,-1.62483c0.71171,-1.71368 3.12742,-6.01948 5.64237,-5.4368c1.11782,0.25898 1.52482,1.72078 2.19049,2.65538c0.35408,0.49713 0.28351,2.1444 0.69524,1.69387c0.57755,-0.63198 0.59586,-1.69912 1.26192,-2.23701c3.44095,-2.77881 5.34238,0.6528 7.14481,3.03879l0.43238,0.81967c0,0 0.55901,1.11804 -0.55902,1.67705z" fill="#272727" stroke="none" stroke-width="0.5"/><path d="M277.28857,148.75452c-0.95277,0 -1.17932,-0.72622 -1.23319,-1.07158c-0.61068,-0.7295 -1.47609,-1.90489 -2.07427,-2.16702c-2.18074,-0.95562 -2.69463,1.42526 -4.13295,1.90918c-2.63278,0.88579 -3.93088,-1.93148 -5.02704,-3.18577c-0.34966,-0.4001 -0.88721,0.58509 -1.33528,0.8707c-0.97038,0.61855 -1.95608,1.23543 -3.02203,1.66901c0,0 -1.1606,0.46424 -1.62484,-0.69636c-0.46424,-1.1606 0.69636,-1.62483 0.69636,-1.62483c1.65422,-0.64818 4.37273,-3.30283 6.33043,-2.48981c0.90073,0.37407 0.98041,1.76395 1.78029,2.322c0.42982,0.29987 0.94763,1.09525 1.36566,0.77913c0.31387,-0.23736 0.25686,-0.78858 0.56033,-1.03911c3.33777,-2.75541 6.30426,-0.01994 8.60042,2.27622l0.36611,1.19823c0,0 0,1.25 -1.25,1.25z" fill="#272727" stroke="none" stroke-width="0.5"/><path d="M279.10497,168.11198c-1.11804,0.55901 -1.67705,-0.55902 -1.67705,-0.55902l-0.19631,-0.43771c-0.80851,-1.08478 -1.34878,-2.72301 -2.67114,-3.29049c-1.17939,-0.50612 -2.58999,4.24267 -2.69527,4.29207c-1.90145,0.89223 -3.74496,-2.14315 -5.04944,-2.77247c-1.99763,-0.96373 -5.36697,1.91155 -7.44488,1.95654c0,0 -1.25,0 -1.25,-1.25c0,-1.25 1.25,-1.25 1.25,-1.25c2.75574,0.09498 5.22411,-3.10392 8.2724,-1.81561c0.73937,0.31248 1.28258,0.96551 1.9235,1.44876c0.26815,0.20218 0.57295,0.36596 0.83722,0.57228c-0.04239,-1.74305 3.18414,-4.00341 4.58315,-3.64489c2.53311,0.64915 2.92221,2.50346 4.24446,4.25381l0.43238,0.81967c0,0 0.55901,1.11804 -0.55902,1.67705z" fill="#272727" stroke="none" stroke-width="0.5"/><path d="M295.60156,182.95404c-1.18586,0.39529 -1.58114,-0.79057 -1.58114,-0.79057l-0.34117,-1.03516c-0.12802,-0.63844 -0.5704,-1.18583 -0.98902,-1.68458c-2.872,-3.42178 -4.92479,4.13025 -8.14455,3.54102c-1.80201,-0.32978 -1.24514,-3.15353 -2.47225,-3.87068c-2.17512,-1.27118 -3.99119,1.99592 -4.18055,3.4883c0,0 -0.2055,1.23299 -1.43849,1.02749c-1.23299,-0.2055 -1.02749,-1.43849 -1.02749,-1.43849c0.62403,-3.22486 2.39238,-5.58046 5.94817,-5.44534c1.24966,0.04748 2.55128,0.82245 3.26373,1.85022c0.25588,0.36913 0.50066,0.7638 0.63702,1.19146c0.25459,-0.30482 0.65535,-0.59981 0.91454,-0.82863c0.66368,-0.5859 1.31918,-1.18768 2.04481,-1.69483c3.60574,-2.52009 6.7639,-0.69375 7.86943,3.25772l0.28752,0.85092c0,0 0.39529,1.18586 -0.79056,1.58114z" fill="#272727" stroke="none" stroke-width="0.5"/><g fill="#2caa2e" stroke="none" stroke-width="0.5"><path d="M198.98829,199.5492c0.90708,-0.45354 1.36062,0.45354 1.36062,0.45354l0.20804,0.47008c0.3263,1.38495 0.20901,2.27163 -0.13126,3.64206c0,0 -0.24597,0.98387 -1.22983,0.7379c-0.98387,-0.24597 -0.7379,-1.22983 -0.7379,-1.22983c0.26776,-1.06288 0.41773,-1.5993 0.13126,-2.65819l-0.05447,-0.05494c0,0 -0.45354,-0.90708 0.45354,-1.36062z"/><path d="M202.59195,200.09841c1.01415,0 1.01415,1.01415 1.01415,1.01415v0.26251c0,1.11213 -0.0029,2.17076 -0.13909,3.27591c0,0 -0.12579,1.00631 -1.1321,0.88052c-1.00631,-0.12579 -0.88052,-1.1321 -0.88052,-1.1321c0.12965,-1.02087 0.12342,-1.996 0.12342,-3.02434v-0.26251c0,0 0,-1.01415 1.01415,-1.01415z"/><path d="M206.14157,200.31167c0.93215,0.39949 0.53266,1.33164 0.53266,1.33164l-0.34205,0.76526c-0.16403,0.65113 -0.28926,1.31346 -0.37132,1.97991c0,0 -0.12579,1.00631 -1.1321,0.88052c-1.00631,-0.12579 -0.88052,-1.1321 -0.88052,-1.1321c0.09463,-0.74701 0.23477,-1.48947 0.41621,-2.22026l0.44548,-1.07231c0,0 0.39949,-0.93215 1.33164,-0.53266z"/></g><g fill="#2caa2e" stroke="none" stroke-width="0.5"><path d="M223.07839,208.43194c0.90708,-0.45354 1.36062,0.45354 1.36062,0.45354l0.20804,0.47008c0.3263,1.38495 0.209,2.27163 -0.13126,3.64205c0,0 -0.24596,0.98387 -1.22983,0.7379c-0.98387,-0.24597 -0.7379,-1.22984 -0.7379,-1.22984c0.26776,-1.06288 0.41773,-1.5993 0.13126,-2.65819l-0.05447,-0.05494c0,0 -0.45354,-0.90708 0.45354,-1.36062z"/><path d="M226.68206,208.98115c1.01415,0 1.01414,1.01415 1.01414,1.01415v0.26251c0,1.11213 -0.0029,2.17076 -0.13909,3.27591c0,0 -0.12578,1.00632 -1.1321,0.88053c-1.00632,-0.12579 -0.88053,-1.1321 -0.88053,-1.1321c0.12965,-1.02087 0.12342,-1.996 0.12342,-3.02434v-0.26251c0,0 0,-1.01415 1.01415,-1.01415z"/><path d="M230.23167,209.1944c0.93214,0.39949 0.53266,1.33164 0.53266,1.33164l-0.34205,0.76526c-0.16403,0.65113 -0.28927,1.31347 -0.37132,1.97991c0,0 -0.12579,1.00632 -1.1321,0.88053c-1.00632,-0.12579 -0.88052,-1.1321 -0.88052,-1.1321c0.09463,-0.74701 0.23476,-1.48947 0.41621,-2.22026l0.44549,-1.07231c0,0 0.3995,-0.93214 1.33164,-0.53266z"/></g><g fill="#2caa2e" stroke="none" stroke-width="0.5"><path d="M209.95897,217.47645c0.90708,-0.45354 1.36062,0.45354 1.36062,0.45354l0.20804,0.47008c0.3263,1.38495 0.209,2.27163 -0.13126,3.64205c0,0 -0.24596,0.98387 -1.22983,0.7379c-0.98387,-0.24597 -0.7379,-1.22984 -0.7379,-1.22984c0.26776,-1.06288 0.41773,-1.5993 0.13126,-2.65819l-0.05447,-0.05494c0,0 -0.45354,-0.90708 0.45354,-1.36062z"/><path d="M213.56264,218.02566c1.01415,0 1.01414,1.01415 1.01414,1.01415v0.26251c0,1.11213 -0.0029,2.17076 -0.13909,3.27591c0,0 -0.12578,1.00632 -1.1321,0.88053c-1.00632,-0.12579 -0.88053,-1.1321 -0.88053,-1.1321c0.12965,-1.02087 0.12342,-1.996 0.12342,-3.02434v-0.26251c0,0 0,-1.01415 1.01415,-1.01415z"/><path d="M217.11225,218.23892c0.93214,0.39949 0.53266,1.33164 0.53266,1.33164l-0.34205,0.76526c-0.16403,0.65113 -0.28927,1.31347 -0.37132,1.97991c0,0 -0.12579,1.00632 -1.1321,0.88053c-1.00632,-0.12579 -0.88052,-1.1321 -0.88052,-1.1321c0.09463,-0.74701 0.23476,-1.48947 0.41621,-2.22026l0.44549,-1.07231c0,0 0.3995,-0.93214 1.33164,-0.53266z"/></g><g fill="#2caa2e" stroke="none" stroke-width="0.5"><path d="M266.56697,198.04759c0.90708,-0.45354 1.36062,0.45354 1.36062,0.45354l0.20804,0.47008c0.3263,1.38495 0.209,2.27163 -0.13126,3.64205c0,0 -0.24597,0.98387 -1.22983,0.7379c-0.98387,-0.24597 -0.7379,-1.22984 -0.7379,-1.22984c0.26776,-1.06288 0.41773,-1.5993 0.13126,-2.65819l-0.05447,-0.05494c0,0 -0.45354,-0.90708 0.45354,-1.36062z"/><path d="M270.17063,198.5968c1.01415,0 1.01414,1.01415 1.01414,1.01415v0.26251c0,1.11213 -0.0029,2.17076 -0.13909,3.27591c0,0 -0.12578,1.00632 -1.1321,0.88053c-1.00632,-0.12579 -0.88053,-1.1321 -0.88053,-1.1321c0.12965,-1.02087 0.12342,-1.996 0.12342,-3.02434v-0.26251c0,0 0,-1.01415 1.01414,-1.01415z"/><path d="M273.72025,198.81005c0.93214,0.39949 0.53266,1.33164 0.53266,1.33164l-0.34205,0.76526c-0.16403,0.65113 -0.28927,1.31347 -0.37132,1.97991c0,0 -0.12579,1.00632 -1.1321,0.88053c-1.00631,-0.12579 -0.88052,-1.1321 -0.88052,-1.1321c0.09463,-0.74701 0.23476,-1.48947 0.41621,-2.22026l0.44549,-1.07231c0,0 0.3995,-0.93214 1.33164,-0.53266z"/></g><g fill="#2caa2e" stroke="none" stroke-width="0.5"><path d="M250.69728,205.79786c0.90708,-0.45354 1.36062,0.45354 1.36062,0.45354l0.20804,0.47008c0.3263,1.38495 0.209,2.27163 -0.13126,3.64205c0,0 -0.24596,0.98387 -1.22983,0.7379c-0.98387,-0.24597 -0.7379,-1.22984 -0.7379,-1.22984c0.26776,-1.06288 0.41773,-1.5993 0.13126,-2.65819l-0.05447,-0.05494c0,0 -0.45354,-0.90708 0.45354,-1.36062z"/><path d="M254.30094,206.34707c1.01415,0 1.01414,1.01415 1.01414,1.01415v0.26251c0,1.11213 -0.0029,2.17076 -0.13909,3.27591c0,0 -0.12579,1.00632 -1.1321,0.88053c-1.00632,-0.12579 -0.88053,-1.1321 -0.88053,-1.1321c0.12965,-1.02087 0.12342,-1.996 0.12342,-3.02434v-0.26251c0,0 0,-1.01415 1.01415,-1.01415z"/><path d="M257.85056,206.56032c0.93214,0.39949 0.53265,1.33164 0.53265,1.33164l-0.34204,0.76526c-0.16403,0.65113 -0.28927,1.31347 -0.37132,1.97991c0,0 -0.12579,1.00632 -1.1321,0.88053c-1.00632,-0.12579 -0.88052,-1.1321 -0.88052,-1.1321c0.09462,-0.74701 0.23476,-1.48947 0.41621,-2.22026l0.44548,-1.07231c0,0 0.3995,-0.93214 1.33164,-0.53266z"/></g><g data-paper-data="{&quot;index&quot;:null}" fill="#2caa2e" stroke="none" stroke-width="0.5"><path d="M231.80772,226.55695l-0.05447,0.05494c-0.28647,1.05889 -0.1365,1.59531 0.13126,2.65819c0,0 0.24597,0.98387 -0.7379,1.22984c-0.98387,0.24597 -1.22983,-0.7379 -1.22983,-0.7379c-0.34026,-1.37043 -0.45756,-2.2571 -0.13126,-3.64205l0.20804,-0.47008c0,0 0.45354,-0.90708 1.36062,-0.45354c0.90708,0.45354 0.45354,1.36062 0.45354,1.36062z"/><path d="M228.76466,226.75968v0.26251c0,1.02833 -0.00623,2.00347 0.12342,3.02434c0,0 0.12579,1.00632 -0.88053,1.1321c-1.00632,0.12579 -1.1321,-0.88053 -1.1321,-0.88053c-0.13619,-1.10515 -0.13909,-2.16378 -0.13909,-3.27591v-0.26251c0,0 0,-1.01415 1.01414,-1.01415c1.01415,0 1.01415,1.01415 1.01415,1.01415z"/><path d="M225.53254,226.49145l0.44549,1.07231c0.18144,0.73079 0.32158,1.47325 0.41621,2.22026c0,0 0.12579,1.00632 -0.88052,1.1321c-1.00632,0.12579 -1.1321,-0.88053 -1.1321,-0.88053c-0.08205,-0.66644 -0.20729,-1.32878 -0.37132,-1.97991l-0.34205,-0.76526c0,0 -0.39949,-0.93215 0.53266,-1.33164c0.93214,-0.39949 1.33164,0.53266 1.33164,0.53266z"/></g><g fill="#2caa2e" stroke="none" stroke-width="0.5"><path d="M261.99152,218.54813c0.90708,-0.45354 1.36062,0.45354 1.36062,0.45354l0.20804,0.47008c0.3263,1.38495 0.209,2.27163 -0.13126,3.64205c0,0 -0.24596,0.98387 -1.22983,0.7379c-0.98387,-0.24597 -0.7379,-1.22984 -0.7379,-1.22984c0.26776,-1.06288 0.41773,-1.5993 0.13126,-2.65819l-0.05447,-0.05494c0,0 -0.45354,-0.90708 0.45354,-1.36062z"/><path d="M265.59519,219.09734c1.01414,0 1.01414,1.01415 1.01414,1.01415v0.26251c0,1.11213 -0.0029,2.17076 -0.13909,3.27591c0,0 -0.12578,1.00632 -1.1321,0.88053c-1.00632,-0.12579 -0.88052,-1.1321 -0.88052,-1.1321c0.12965,-1.02087 0.12342,-1.996 0.12342,-3.02434v-0.26251c0,0 0,-1.01415 1.01414,-1.01415z"/><path d="M269.1448,219.31059c0.93214,0.39949 0.53265,1.33164 0.53265,1.33164l-0.34204,0.76526c-0.16403,0.65113 -0.28927,1.31347 -0.37132,1.97991c0,0 -0.12579,1.00632 -1.1321,0.88053c-1.00632,-0.12579 -0.88053,-1.1321 -0.88053,-1.1321c0.09463,-0.74701 0.23477,-1.48947 0.41621,-2.22026l0.44549,-1.07231c0,0 0.3995,-0.93214 1.33164,-0.53266z"/></g><g fill="#2caa2e" stroke="none" stroke-width="0.5"><path d="M247.41608,224.68059c0.90708,-0.45354 1.36062,0.45354 1.36062,0.45354l0.20804,0.47008c0.3263,1.38495 0.209,2.27163 -0.13126,3.64205c0,0 -0.24596,0.98387 -1.22983,0.7379c-0.98387,-0.24597 -0.7379,-1.22984 -0.7379,-1.22984c0.26776,-1.06288 0.41773,-1.5993 0.13126,-2.65819l-0.05447,-0.05494c0,0 -0.45354,-0.90708 0.45354,-1.36062z"/><path d="M251.01974,225.2298c1.01415,0 1.01414,1.01415 1.01414,1.01415v0.26251c0,1.11213 -0.0029,2.17076 -0.13909,3.27591c0,0 -0.12578,1.00632 -1.1321,0.88053c-1.00632,-0.12579 -0.88053,-1.1321 -0.88053,-1.1321c0.12965,-1.02087 0.12342,-1.996 0.12342,-3.02434v-0.26251c0,0 0,-1.01415 1.01415,-1.01415z"/><path d="M254.56936,225.44306c0.93214,0.39949 0.53266,1.33164 0.53266,1.33164l-0.34205,0.76526c-0.16403,0.65113 -0.28927,1.31347 -0.37132,1.97991c0,0 -0.12579,1.00632 -1.1321,0.88053c-1.00632,-0.12579 -0.88052,-1.1321 -0.88052,-1.1321c0.09463,-0.74701 0.23476,-1.48947 0.41621,-2.22026l0.44549,-1.07231c0,0 0.3995,-0.93214 1.33164,-0.53266z"/></g><g data-paper-data="{&quot;index&quot;:null}" fill="#2caa2e" stroke="none" stroke-width="0.5"><path d="M214.77517,207.90659l-0.05447,0.05494c-0.28647,1.05889 -0.1365,1.59531 0.13126,2.65819c0,0 0.24597,0.98387 -0.7379,1.22984c-0.98387,0.24597 -1.22983,-0.7379 -1.22983,-0.7379c-0.34026,-1.37043 -0.45756,-2.2571 -0.13126,-3.64205l0.20804,-0.47008c0,0 0.45354,-0.90708 1.36062,-0.45354c0.90708,0.45354 0.45354,1.36062 0.45354,1.36062z"/><path d="M211.73211,208.10933v0.26251c0,1.02833 -0.00623,2.00347 0.12342,3.02434c0,0 0.12579,1.00632 -0.88053,1.1321c-1.00632,0.12579 -1.1321,-0.88053 -1.1321,-0.88053c-0.13619,-1.10515 -0.13909,-2.16378 -0.13909,-3.27591v-0.26251c0,0 0,-1.01415 1.01414,-1.01415c1.01415,0 1.01415,1.01415 1.01415,1.01415z"/><path d="M208.49999,207.84109l0.44549,1.07231c0.18144,0.73079 0.32158,1.47325 0.41621,2.22026c0,0 0.12579,1.00632 -0.88052,1.1321c-1.00632,0.12579 -1.1321,-0.88053 -1.1321,-0.88053c-0.08205,-0.66644 -0.20729,-1.32878 -0.37132,-1.97991l-0.34205,-0.76526c0,0 -0.39949,-0.93215 0.53266,-1.33164c0.93214,-0.39949 1.33164,0.53266 1.33164,0.53266z"/></g><g data-paper-data="{&quot;index&quot;:null}" fill="#2caa2e" stroke="none" stroke-width="0.5"><path d="M280.92822,209.67098l-0.05447,0.05494c-0.28647,1.05889 -0.1365,1.59531 0.13126,2.65819c0,0 0.24597,0.98387 -0.7379,1.22984c-0.98386,0.24597 -1.22983,-0.7379 -1.22983,-0.7379c-0.34026,-1.37043 -0.45756,-2.2571 -0.13126,-3.64205l0.20804,-0.47008c0,0 0.45354,-0.90708 1.36062,-0.45354c0.90708,0.45354 0.45354,1.36062 0.45354,1.36062z"/><path d="M277.88516,209.87372v0.26251c0,1.02833 -0.00622,2.00347 0.12342,3.02434c0,0 0.12579,1.00632 -0.88053,1.1321c-1.00631,0.12579 -1.1321,-0.88053 -1.1321,-0.88053c-0.13619,-1.10515 -0.13909,-2.16378 -0.13909,-3.27591v-0.26251c0,0 0,-1.01415 1.01414,-1.01415c1.01414,0 1.01414,1.01415 1.01414,1.01415z"/><path d="M274.65304,209.60548l0.44549,1.07231c0.18144,0.73079 0.32158,1.47325 0.41621,2.22026c0,0 0.12579,1.00632 -0.88052,1.1321c-1.00631,0.12579 -1.1321,-0.88053 -1.1321,-0.88053c-0.08205,-0.66644 -0.20729,-1.32878 -0.37132,-1.97991l-0.34204,-0.76526c0,0 -0.39949,-0.93215 0.53265,-1.33164c0.93214,-0.39949 1.33164,0.53266 1.33164,0.53266z"/></g><g data-paper-data="{&quot;index&quot;:null}" fill="#2caa2e" stroke="none" stroke-width="0.5"><path d="M231.08461,200.59607l-0.05447,0.05494c-0.28647,1.05889 -0.1365,1.59531 0.13126,2.65819c0,0 0.24597,0.98387 -0.7379,1.22984c-0.98386,0.24597 -1.22983,-0.7379 -1.22983,-0.7379c-0.34026,-1.37043 -0.45756,-2.2571 -0.13126,-3.64205l0.20804,-0.47008c0,0 0.45354,-0.90708 1.36062,-0.45354c0.90708,0.45354 0.45354,1.36062 0.45354,1.36062z"/><path d="M228.04155,200.79881v0.26251c0,1.02833 -0.00623,2.00347 0.12342,3.02434c0,0 0.12579,1.00632 -0.88053,1.1321c-1.00631,0.12579 -1.1321,-0.88053 -1.1321,-0.88053c-0.13619,-1.10515 -0.13909,-2.16378 -0.13909,-3.27591v-0.26251c0,0 0,-1.01415 1.01414,-1.01415c1.01415,0 1.01415,1.01415 1.01415,1.01415z"/><path d="M224.80943,200.53057l0.44549,1.07231c0.18144,0.73079 0.32158,1.47325 0.41621,2.22026c0,0 0.12579,1.00632 -0.88052,1.1321c-1.00631,0.12579 -1.1321,-0.88053 -1.1321,-0.88053c-0.08206,-0.66644 -0.20729,-1.32878 -0.37132,-1.97991l-0.34204,-0.76526c0,0 -0.39949,-0.93215 0.53265,-1.33164c0.93214,-0.39949 1.33164,0.53266 1.33164,0.53266z"/></g></g></g></svg>