<svg version="1.1" xmlns="http://www.w3.org/2000/svg" xmlns:xlink="http://www.w3.org/1999/xlink" width="117.04586" height="117.04586" viewBox="0,0,117.04586,117.04586"><defs><linearGradient x1="240" y1="121.47707" x2="240" y2="238.52293" gradientUnits="userSpaceOnUse" id="color-1"><stop offset="0" stop-color="#b6ff66"/><stop offset="1" stop-color="#66ebff"/></linearGradient></defs><g transform="translate(-181.47707,-121.47707)"><g data-paper-data="{&quot;isPaintingLayer&quot;:true}" stroke-miterlimit="10" stroke-dasharray="" stroke-dashoffset="0" style="mix-blend-mode: normal"><path d="M181.47707,180c0,-32.32132 26.20161,-58.52293 58.52293,-58.52293c32.32132,0 58.52293,26.20161 58.52293,58.52293c0,32.32132 -26.20161,58.52293 -58.52293,58.52293c-32.32132,0 -58.52293,-26.20161 -58.52293,-58.52293z" fill="url(#color-1)" fill-rule="nonzero" stroke="none" stroke-width="0" stroke-linecap="butt" stroke-linejoin="miter"/><g fill-rule="evenodd"><path d="M251.24101,151.32838c0.3,-0.2 0.8,-0.1 0.9,0.3l2.6,10.7c0,0 6.4,4.7 8.3,8c3.2,5.5 3.3,10 3.3,10c0,0 5.1,24.3 -13.7,28c-9.50968,1.87159 -26.46449,-2.18677 -33.44158,-12.12081c-6.81616,-9.70489 -3.76191,-25.27452 -4.05841,-24.87919l-2.1,-17.9c-0.1,-0.4 0.4,-0.7 0.8,-0.5l12.1,7.9c0,0 4.5,-1.7 9.2,-1.9c2.8,-0.2 5.2,0 7.5,0.4z" fill="#ffab19" stroke="#ffab19" stroke-width="1.2" stroke-linecap="butt" stroke-linejoin="miter"/><path d="M234.54101,191.42838c0,-0.4 0.4,-0.7 0.8,-0.6c1.9,0.7 7.3,2.3 13.3,2.7c5.4,0.3 8.6,0 10.1,-0.3c0.5,-0.1 0.9,0.4 0.7,0.9c-0.9,2.7 -4.7,10.2 -15.2,9.6c-9.1,-1 -10,-7.4 -9.7,-12.3z" fill="#ffab19" stroke="#ffab19" stroke-width="1.2" stroke-linecap="round" stroke-linejoin="round"/><g fill="#ffab19" stroke="#ffab19"><path d="M260.94101,171.32838c2.9,4.5 3,9.6 0.2,11.4c-2.8,1.8 -7.4,-0.3 -10.4,-4.8c-2.9,-4.5 -3,-9.6 -0.2,-11.4c2.8,-1.9 7.5,0.3 10.4,4.8z" stroke-width="1.2" stroke-linecap="round" stroke-linejoin="round"/><path d="M260.54101,177.02838c0,1.1 -0.8,2 -1.8,2c-1,0 -1.8,-0.9 -1.8,-2c0,-1.1 0.8,-2 1.8,-2c1,0 1.8,0.9 1.8,2" stroke-width="1" stroke-linecap="butt" stroke-linejoin="miter"/></g><g fill="#ffab19" stroke="#ffab19"><path d="M236.14101,174.12838c3,4.4 2.8,9.8 0.1,11.7c-3.3,1.9 -7.7,0.5 -10.7,-3.9c-3.1,-4.4 -3.3,-10.1 -0.2,-12.3c3.1,-2.3 7.8,0.1 10.8,4.5z" stroke-width="1.2" stroke-linecap="round" stroke-linejoin="round"/><path d="M235.54101,179.92838c0,1.1 -0.8,2 -1.8,2c-1,0 -1.8,-0.9 -1.8,-2c0,-1.1 0.8,-2 1.8,-2c1,0.1 1.8,0.9 1.8,2" stroke-width="1" stroke-linecap="butt" stroke-linejoin="miter"/></g><path d="M256.43375,182.3654c2.1,0 4.3,0.2 4.4,0.9c0.1,1.4 -1.4,4.2 -3,4.3c-1.8,0.2 -6,-2.3 -6,-3.9c-0.1,-1.2 2.6,-1.3 4.6,-1.3z" fill="#000000" stroke="#000000" stroke-width="1.2" stroke-linecap="round" stroke-linejoin="round"/></g></g></g></svg>