<svg version="1.1" xmlns="http://www.w3.org/2000/svg" xmlns:xlink="http://www.w3.org/1999/xlink" width="117.11712" height="117.11712" viewBox="0,0,117.11712,117.11712"><g transform="translate(-181.44144,-121.44144)"><g data-paper-data="{&quot;isPaintingLayer&quot;:true}" stroke-linecap="butt" stroke-linejoin="miter" stroke-miterlimit="10" stroke-dasharray="" stroke-dashoffset="0" style="mix-blend-mode: normal"><path d="M181.44144,180c0,-32.341 26.21756,-58.55856 58.55856,-58.55856c32.341,0 58.55856,26.21756 58.55856,58.55856c0,32.341 -26.21756,58.55856 -58.55856,58.55856c-32.341,0 -58.55856,-26.21756 -58.55856,-58.55856z" fill="#dedede" fill-rule="nonzero" stroke="none" stroke-width="0"/><g fill="#fbfbfb" fill-rule="evenodd" stroke="#fbfbfb"><g><path d="M254.24589,157.33553l6.25672,21.35013c0,0 1.43863,5.04797 1.02664,6.21019c-0.66276,1.86485 -2.01135,11.19704 -29.44908,22.30711c0,0 22.4784,-24.10792 23.01132,-28.85139l-17.96458,-7.74511c0,0 -0.04897,-5.71439 1.73379,-7.22017" stroke-width="1"/><path d="M254.24589,157.33553l6.25672,21.35013c0,0 1.43863,5.04797 1.02664,6.21019c-0.66276,1.86485 -2.01135,11.19704 -29.44908,22.30711c0,0 4.14513,-6.78609 7.12929,-15.05101c1.18606,-3.2849 2.18872,-6.80341 2.67485,-10.22231c1.31645,-9.25849 -3.79927,-17.8882 -3.02361,-18.54335" stroke-width="0.5"/></g><path d="M252.44072,191.1813c0,0 0.4158,-0.25816 1.0731,-0.79217c0.32869,-0.26657 0.71383,-0.60761 1.11785,-1.03059c0.39943,-0.42721 0.82233,-0.9348 1.19619,-1.53609c0.37135,-0.60086 0.68624,-1.30513 0.83152,-2.08136c0.14858,-0.77415 0.09918,-1.61802 -0.15742,-2.43547c-0.03224,-0.0963 -0.06657,-0.21781 -0.0963,-0.29472l-0.13358,-0.31957c-0.08876,-0.21451 -0.17795,-0.43059 -0.26836,-0.64718c-0.2018,-0.41163 -0.40531,-0.8275 -0.61084,-1.24675c-0.22362,-0.41875 -0.44926,-0.84094 -0.67576,-1.26521c-0.23907,-0.41839 -0.47899,-0.83842 -0.71885,-1.25853c-0.48739,-0.83763 -0.97681,-1.67475 -1.47964,-2.48761c-0.50118,-0.81486 -0.99439,-1.61587 -1.47167,-2.39167c-0.97006,-1.54449 -1.87568,-2.98592 -2.65148,-4.22168c-0.77666,-1.23791 -1.42348,-2.2698 -1.87655,-2.99174c-0.45005,-0.72582 -0.70714,-1.13997 -0.70714,-1.13997c0,0 0.31403,0.37379 0.84071,1.04532c0.51791,0.67741 1.27907,1.63066 2.13946,2.81392c0.43375,0.58909 0.89974,1.23031 1.3791,1.91742c0.4828,0.68538 0.98937,1.4107 1.49429,2.17343c0.50413,0.76409 1.03626,1.54613 1.53989,2.3661c0.51375,0.81322 1.01738,1.65206 1.51648,2.49429c0.23907,0.42765 0.47771,0.85616 0.71555,1.28294c0.2265,0.43397 0.4517,0.86664 0.67569,1.29594c0.21566,0.43942 0.41745,0.88934 0.61379,1.32747c0.08416,0.21946 0.16711,0.43813 0.24912,0.65472l0.12352,0.32416c0.0494,0.13917 0.07203,0.2405 0.10887,0.36201c0.27088,0.93221 0.27044,1.91404 0.05989,2.77357c-0.20144,0.86743 -0.60373,1.60919 -1.04294,2.21802c-0.43583,0.61602 -0.92783,1.09745 -1.37954,1.49357c-0.45594,0.39361 -0.87885,0.70011 -1.23598,0.93724c-0.35627,0.23806 -0.65436,0.39569 -0.85536,0.50377c-0.20222,0.10679 -0.31361,0.15641 -0.31361,0.15641" stroke-width="1"/><path d="M293.84627,168.02141c-1.12797,-3.53802 -3.78362,-4.29658 -3.78362,-4.29658c-11.42577,-3.67037 -25.38366,-3.67461 -25.38366,-3.67461c0,0 -4.73651,-1.87706 -8.57414,2.78319c-1.32847,1.61343 -9.21098,10.75733 -18.21255,12.61456c-15.56106,3.46901 -27.98201,-7.20918 -33.50315,-13.51689c0,0 -2.04775,0.68409 -4.42628,1.34133c-3.78987,1.04746 -7.37421,1.79045 -7.73385,0.65264c-0.56309,-1.78161 0.4107,-2.28201 0.4107,-2.28201c0,0 -6.80351,-1.4721 -6.80351,-2.47117c0,-0.9289 2.60546,-1.59073 5.85859,-1.31906c2.58491,0.21608 14.86856,1.24927 14.86856,1.24927c14.33721,-0.03533 24.43788,-1.82241 24.43788,-1.82241c14.72371,-0.47181 15.31948,-1.71641 16.69736,-2.77895c1.65414,-1.27576 2.61422,-5.2275 8.88307,-6.01637c19.16127,-2.1722 32.14954,7.25127 35.12131,10.23468c3.43239,3.44625 2.14327,9.30239 2.14327,9.30239" stroke-width="1"/><path d="M255.41688,153.32204c0,0 -0.62758,-0.06176 3.39554,2.09444c1.54406,0.82793 3.6387,2.53177 5.67597,4.62455c0,0 -3.77981,-0.04588 -9.19711,3.54506c-1.73666,1.15131 -6.44387,8.53292 -14.62275,11.04868c-8.95137,2.75296 -14.4537,0.79554 -14.4537,0.79554c1.97867,0.08115 9.78412,0.41422 18.71035,-5.46922c3.7694,-2.48424 7.57392,-5.75353 7.96997,-9.7666c0.62808,-6.36616 2.52172,-6.87245 2.52172,-6.87245" stroke-width="1"/><path d="M260.70843,156.73647c0,0 1.47202,-0.19217 1.681,-1.7745c0.16826,-1.27612 -0.19849,-4.34736 0.05695,-5.2619c0.2558,-0.91497 0.59411,-1.43346 0.59411,-1.43346c0,0 15.74066,-0.735 28.6623,10.45241c3.31892,2.87318 2.14326,9.30239 2.14326,9.30239c0,0 -0.63684,-2.87992 -3.86613,-4.32258c-3.36991,-1.50492 -21.31997,-4.18132 -25.30115,-3.64854z" stroke-width="1"/><path d="M264.67891,160.05022l-3.8242,-3.24237c0,0 21.7818,1.93421 29.58093,6.91446c0,0 -12.24889,-3.68014 -25.75673,-3.67209" stroke-width="1"/><path d="M293.83477,168.24884c-0.4484,-2.6293 -3.01493,-4.88309 -6.29026,-5.99526c-6.36351,-2.16086 -7.62663,-4.58326 -7.2695,-6.1029c0.5376,-2.28582 4.42462,-2.05831 7.96372,-0.11691c7.96322,4.36839 5.59605,12.21507 5.59605,12.21507" stroke-width="1"/><path d="M290.06264,163.72483c-11.42577,-3.67037 -25.38366,-3.67461 -25.38366,-3.67461c0,0 -6.35016,-0.60718 -12.80659,7.13902c-1.3381,1.60582 -8.36308,8.4341 -18.40974,8.91511c-18.24895,0.28976 -28.99522,-14.19934 -28.99522,-14.19934c-2.82606,1.0512 -11.149,3.31217 -12.14333,2.15583c-0.72725,-0.84517 0.31562,-2.4178 0.31562,-2.4178c0,0 -6.78929,-1.4721 -6.80351,-2.47117c-0.02384,-1.73451 5.76688,-1.46879 9.00164,-1.03275c2.98305,0.40201 8.40832,0.80481 8.40832,0.80481c16.15517,0.9814 24.7293,-1.51583 27.75508,-1.66427c3.20208,-0.24596 12.64746,-0.3679 15.08961,-1.62937c2.77336,-0.89946 3.50312,-6.428 10.49083,-7.16595c19.16127,-2.1722 32.14954,7.25127 35.12131,10.23468c3.43239,3.44625 2.14327,9.30239 2.14327,9.30239c-1.12797,-3.53802 -3.78362,-4.29658 -3.78362,-4.29658z" stroke-width="0.5"/><path d="M262.36969,150.37533c-0.12021,1.31906 0.30312,2.83913 0.03806,4.48236c-0.26463,1.64373 -1.76474,1.84933 -1.76474,1.84933c-2.06448,-0.7363 -6.42168,-2.4981 -5.86692,-5.44236c0.55512,-2.94384 7.5936,-0.88933 7.5936,-0.88933" stroke-width="1"/><path d="M264.80027,160.19448c-0.41235,-0.44618 -4.0917,-3.45809 -4.0917,-3.45809c2.13651,-0.33723 1.87311,-3.07461 1.67885,-5.40825c-0.19468,-2.33372 0.7419,-3.15749 0.7419,-3.15749" stroke-width="0.5"/><path d="M260.70843,156.73647c0,0 30.13985,2.87648 32.50789,9.81328" stroke-width="0.5"/><path d="M285.87026,161.61768c-1.18995,-0.57393 -6.63403,-2.73522 -5.51949,-5.7098c1.19741,-3.1944 7.90261,0.04754 7.90261,0.04754" stroke-width="0.5"/><path d="M257.45055,152.23594c0.15116,-0.82793 0.94162,-1.37587 1.76646,-1.22449c0.82434,0.15181 1.37034,0.9465 1.21918,1.774c-0.15073,0.82793 -0.94162,1.37665 -1.76639,1.22492c-0.82484,-0.15181 -1.36991,-0.94613 -1.21925,-1.77443" stroke-width="1"/><path d="M258.14527,152.36405c0.09544,-0.52395 0.59576,-0.87045 1.11662,-0.77458c0.52122,0.09587 0.86664,0.59834 0.7712,1.12186c-0.09587,0.52352 -0.59576,0.87038 -1.11705,0.77372c-0.52086,-0.09587 -0.86665,-0.59792 -0.77078,-1.121" stroke-width="1"/><path d="M258.48416,152.42646c0.06111,-0.33638 0.38183,-0.55799 0.71598,-0.49659c0.33364,0.06183 0.55519,0.38305 0.49444,0.71907c-0.06155,0.33508 -0.38226,0.55756 -0.71591,0.49616c-0.33458,-0.06183 -0.55562,-0.38349 -0.49451,-0.71864" stroke-width="1"/><path d="M204.30169,161.931c-0.00043,0 -0.24244,-0.42549 -0.45637,-0.86743c-0.11052,-0.21781 -0.21357,-0.44028 -0.27677,-0.6135c-0.06787,-0.16948 -0.11346,-0.28259 -0.11346,-0.28259c0,0 0.06197,0.10513 0.1549,0.26241c0.08711,0.15936 0.22068,0.36165 0.36172,0.55885c0.27339,0.399 0.57364,0.77953 0.57364,0.77953z" stroke-width="1"/><g><path d="M242.8291,161.64303c0,0 -2.39116,15.22926 -5.36487,25.54373c-1.56198,5.41782 -4.37085,8.93657 -4.72971,9.35432c-1.67267,1.94685 -6.96657,13.50949 -38.78621,15.29649c0,0 10.34647,-12.5039 18.18404,-25.28472c7.13284,-11.63161 11.75832,-23.62139 12.95524,-24.12225" stroke-width="1"/><path d="M242.8291,161.64303l-6.28021,28.06653c0,0 -4.5223,4.11845 -5.56438,5.33151c-1.67267,1.94685 -5.21657,15.00949 -37.03621,16.79649c0,0 11.35668,-4.7304 13.08371,-5.99187c0,0 -3.0354,-0.6833 2.93077,-6.99058c0.20934,0.26283 0.41867,-4.62534 2.09335,-8.88272c0,0 0.74155,-4.18591 3.92517,-9.61858l3.40172,-10.03912c0,0 3.19246,-6.83289 5.70455,-7.88408" stroke-width="0.5"/></g></g></g></g></svg>