<svg version="1.1" xmlns="http://www.w3.org/2000/svg" xmlns:xlink="http://www.w3.org/1999/xlink" width="117.11712" height="117.11712" viewBox="0,0,117.11712,117.11712"><defs><radialGradient cx="240" cy="180" r="47.55105" gradientUnits="userSpaceOnUse" id="color-1"><stop offset="0" stop-color="#000000"/><stop offset="1" stop-color="#2d005c"/></radialGradient></defs><g transform="translate(-181.44144,-121.44144)"><g data-paper-data="{&quot;isPaintingLayer&quot;:true}" fill-rule="nonzero" stroke="none" stroke-linecap="butt" stroke-linejoin="miter" stroke-miterlimit="10" stroke-dasharray="" stroke-dashoffset="0" style="mix-blend-mode: normal"><path d="M181.44144,180c0,-32.341 26.21756,-58.55856 58.55856,-58.55856c32.341,0 58.55856,26.21756 58.55856,58.55856c0,32.341 -26.21756,58.55856 -58.55856,58.55856c-32.341,0 -58.55856,-26.21756 -58.55856,-58.55856z" fill="#1f1f1f" stroke-width="0"/><path d="M192.44895,180c0,-26.26172 21.28933,-47.55105 47.55105,-47.55105c26.26172,0 47.55105,21.28933 47.55105,47.55105c0,26.26172 -21.28933,47.55105 -47.55105,47.55105c-26.26172,0 -47.55105,-21.28933 -47.55105,-47.55105z" fill="url(#color-1)" stroke-width="0"/><path d="M202,139.25c0,-1.38071 1.11929,-2.5 2.5,-2.5c1.38071,0 2.5,1.11929 2.5,2.5c0,1.38071 -1.11929,2.5 -2.5,2.5c-1.38071,0 -2.5,-1.11929 -2.5,-2.5z" fill="#e1e1e1" stroke-width="0.5"/><path d="M217,225.75c0,-1.38071 1.11929,-2.5 2.5,-2.5c1.38071,0 2.5,1.11929 2.5,2.5c0,1.38071 -1.11929,2.5 -2.5,2.5c-1.38071,0 -2.5,-1.11929 -2.5,-2.5z" fill="#e1e1e1" stroke-width="0.5"/><path d="M184,170.25c0,-1.38071 1.11929,-2.5 2.5,-2.5c1.38071,0 2.5,1.11929 2.5,2.5c0,1.38071 -1.11929,2.5 -2.5,2.5c-1.38071,0 -2.5,-1.11929 -2.5,-2.5z" fill="#e1e1e1" stroke-width="0.5"/><path d="M284,156.75c0,-1.38071 1.11929,-2.5 2.5,-2.5c1.38071,0 2.5,1.11929 2.5,2.5c0,1.38071 -1.11929,2.5 -2.5,2.5c-1.38071,0 -2.5,-1.11929 -2.5,-2.5z" fill="#e1e1e1" stroke-width="0.5"/><path d="M267.5,222.25c0,-1.38071 1.11929,-2.5 2.5,-2.5c1.38071,0 2.5,1.11929 2.5,2.5c0,1.38071 -1.11929,2.5 -2.5,2.5c-1.38071,0 -2.5,-1.11929 -2.5,-2.5z" fill="#e1e1e1" stroke-width="0.5"/><path d="M289,172.75c0,-1.38071 1.11929,-2.5 2.5,-2.5c1.38071,0 2.5,1.11929 2.5,2.5c0,1.38071 -1.11929,2.5 -2.5,2.5c-1.38071,0 -2.5,-1.11929 -2.5,-2.5z" fill="#e1e1e1" stroke-width="0.5"/></g></g></svg>