<svg version="1.1" xmlns="http://www.w3.org/2000/svg" xmlns:xlink="http://www.w3.org/1999/xlink" width="120.36707" height="118.16885" viewBox="0,0,120.36707,118.16885"><g transform="translate(-179.81646,-120.91558)"><g data-paper-data="{&quot;isPaintingLayer&quot;:true}" fill-rule="nonzero" stroke="none" stroke-width="0" stroke-linecap="butt" stroke-linejoin="miter" stroke-miterlimit="10" stroke-dasharray="" stroke-dashoffset="0" style="mix-blend-mode: normal"><path d="M192.05704,213.82686c0,-14.47396 0,-53.22874 0,-53.22874c0,0 29.73255,-4.70029 45.3228,-4.70029c16.61926,0 51.50318,4.70029 51.50318,4.70029c0,0 0,36.54236 0,50.9326c0,10.58425 -13.49888,27.5537 -29.04779,27.5537c-14.71017,0 -31.25517,0 -39.94072,0c-11.3491,0 -27.83747,-15.28722 -27.83747,-25.25756z" fill="#f0f0f0"/><path d="M293.54339,178.23154c-3.05977,3.10313 -10.06444,13.33876 -18.49248,6.9756c-14.62309,-11.04042 -40.7103,-30.84132 -49.33858,-37.35566c-7.12036,-5.37586 -6.01014,-10.61754 -2.66801,-14.00702c3.43918,-3.48792 12.07223,-15.01388 18.95987,-9.81371c8.61467,6.50407 39.50665,27.44232 54.34958,38.64871c8.44242,6.37402 0.8169,11.87339 -2.81038,15.55208z" fill="#c7c7c7"/><path d="M186.9458,182.3227c-3.44798,-2.77398 -11.55844,-6.96394 -4.02435,-14.13443c13.07203,-12.44117 36.54612,-35.57216 44.2592,-42.91301c6.36511,-6.05792 12.31731,-4.92158 16.08348,-1.89161c3.87553,3.11795 16.76855,11.03206 10.61147,16.89199c-7.70092,7.32927 -32.5918,33.68707 -45.86036,46.31528c-7.54694,7.18272 -16.98194,-0.97974 -21.06944,-4.26823z" fill="#e6e6e6"/></g></g></svg>