<svg version="1.1" xmlns="http://www.w3.org/2000/svg" xmlns:xlink="http://www.w3.org/1999/xlink" width="109.24688" height="71.8271" viewBox="0,0,109.24688,71.8271"><g transform="translate(-185.58334,-143.6729)"><g data-paper-data="{&quot;isPaintingLayer&quot;:true}" fill-rule="nonzero" stroke-linejoin="miter" stroke-miterlimit="10" stroke-dasharray="" stroke-dashoffset="0" style="mix-blend-mode: normal"><path d="M186.58335,214.83333v-70h107v70z" fill="#43a0d6" stroke="#229dfb" stroke-width="0.5" stroke-linecap="butt"/><path d="M238.78243,147.61639l-51.19908,65.88361" fill="none" stroke="#bdbdbd" stroke-width="4" stroke-linecap="round"/><path d="M292.25001,213.5l-52.92726,-65.30756" fill="none" stroke="#bdbdbd" stroke-width="4" stroke-linecap="round"/><path d="M239.74758,184.24688l-51.82882,-38.40939" fill="none" stroke="#dfdfdf" stroke-width="4" stroke-linecap="round"/><path d="M240.17603,183.99792l52.6542,-38.32502" fill="none" stroke="#dfdfdf" stroke-width="4" stroke-linecap="round"/><path d="M213.9078,162.71441l11.18006,-15.57224l19.41474,13.93878l-11.18006,15.57224z" fill="#43a0d6" stroke="none" stroke-width="0" stroke-linecap="butt"/><path d="M245.64625,177.01414l-11.12212,-15.61368l19.4664,-13.86653l11.12212,15.61368c0,0 -8.43157,6.07742 -11.95571,8.58778c-2.79323,1.9897 -7.51068,5.27875 -7.51068,5.27875z" fill="#43a0d6" stroke="none" stroke-width="0" stroke-linecap="butt"/><path d="M261.84673,145.09282c0,0 -9.53633,10.45636 -21.29999,10.45636c-11.76365,0 -21.29998,-10.45636 -21.29998,-10.45636c0,0 13.87843,0 20.91271,0c7.16336,0 21.68726,0 21.68726,0z" fill="#43a0d6" stroke="none" stroke-width="0" stroke-linecap="butt"/><path d="M245.88558,156.42054c0,1.44372 -1.50476,2.61409 -3.36097,2.61409c-1.85621,0 -3.36097,-1.17037 -3.36097,-2.61409c0,-1.44372 1.50476,-2.61409 3.36097,-2.61409c1.85621,0 3.36097,1.17037 3.36097,2.61409z" fill="#43a0d6" stroke="none" stroke-width="0" stroke-linecap="butt"/></g></g></svg>