<svg version="1.1" xmlns="http://www.w3.org/2000/svg" xmlns:xlink="http://www.w3.org/1999/xlink" width="123" height="123" viewBox="0,0,123,123"><defs><linearGradient x1="178.5" y1="180" x2="301.5" y2="180" gradientUnits="userSpaceOnUse" id="color-1"><stop offset="0" stop-color="#a0a5a9"/><stop offset="1" stop-color="#1b94e3"/></linearGradient><linearGradient x1="196" y1="180" x2="284" y2="180" gradientUnits="userSpaceOnUse" id="color-2"><stop offset="0" stop-color="#bacee3"/><stop offset="1" stop-color="#a0b6b1"/></linearGradient></defs><g transform="translate(-178.5,-118.5)"><g data-paper-data="{&quot;isPaintingLayer&quot;:true}" fill-rule="nonzero" stroke="none" stroke-width="0" stroke-linecap="butt" stroke-linejoin="miter" stroke-miterlimit="10" stroke-dasharray="" stroke-dashoffset="0" style="mix-blend-mode: normal"><path d="M178.5,180c0,-33.96551 27.53449,-61.5 61.5,-61.5c33.96551,0 61.5,27.53449 61.5,61.5c0,33.96551 -27.53449,61.5 -61.5,61.5c-33.96551,0 -61.5,-27.53449 -61.5,-61.5z" fill="url(#color-1)"/><path d="M196,180c0,-24.30053 19.69947,-44 44,-44c24.30053,0 44,19.69947 44,44c0,24.30053 -19.69947,44 -44,44c-24.30053,0 -44,-19.69947 -44,-44z" fill="url(#color-2)"/><path d="M259.5,175c0,11.04569 -8.73045,20 -19.5,20c-10.76955,0 -19.5,-8.95431 -19.5,-20c0,-11.04569 8.73045,-20 19.5,-20c10.76955,0 19.5,8.95431 19.5,20z" fill="#f8f8f8"/><path d="M264.5,211c0,12.70255 -10.96902,23 -24.5,23c-13.53098,0 -24.5,-10.29745 -24.5,-23c0,-12.70255 10.96902,-23 24.5,-23c13.53098,0 24.5,10.29745 24.5,23z" fill="#f8f8f8"/><path d="M248.43334,180.16955c0,2.4035 -3.24928,3.75793 -8.52841,3.75793c-5.27913,0 -8.63826,-1.35443 -8.63826,-3.75793c0,-2.4035 3.52531,0.37791 8.67841,0.2127c4.41976,-0.1417 8.48826,-2.46938 8.48826,-0.2127z" fill="#bdbdbd"/></g></g></svg>