<svg version="1.1" xmlns="http://www.w3.org/2000/svg" xmlns:xlink="http://www.w3.org/1999/xlink" width="47.08982" height="72.73346" viewBox="0,0,47.08982,72.73346"><g transform="translate(-216.59047,-150.62511)"><g data-paper-data="{&quot;isPaintingLayer&quot;:true}" fill-rule="nonzero" stroke="none" stroke-linecap="butt" stroke-linejoin="miter" stroke-miterlimit="10" stroke-dasharray="" stroke-dashoffset="0" style="mix-blend-mode: normal"><path d="M216.59047,207.18479c0,-8.93253 10.52562,-16.17378 23.50963,-16.17378c12.98401,0 23.50963,7.24125 23.50963,16.17378c0,8.93253 -10.52562,16.17378 -23.50963,16.17378c-12.98401,0 -23.50963,-7.24125 -23.50963,-16.17378z" fill="#7d53d0" stroke-width="NaN"/><path d="M216.59047,206.40219v-41.21705h47.01926v41.21705z" fill="#7d53d0" stroke-width="0"/><path d="M216.66103,166.79889c0,-8.93253 10.52562,-16.17378 23.50963,-16.17378c12.98401,0 23.50963,7.24125 23.50963,16.17378c0,8.93253 -10.52562,16.17378 -23.50963,16.17378c-12.98401,0 -23.50963,-7.24125 -23.50963,-16.17378z" fill="#875ae1" stroke-width="NaN"/></g></g></svg>