<svg version="1.1" xmlns="http://www.w3.org/2000/svg" xmlns:xlink="http://www.w3.org/1999/xlink" width="123" height="122" viewBox="0,0,123,122"><defs><linearGradient x1="208.5" y1="180" x2="271.5" y2="180" gradientUnits="userSpaceOnUse" id="color-1"><stop offset="0" stop-color="#378bcc"/><stop offset="1" stop-color="#72f6ff"/></linearGradient></defs><g transform="translate(-178.5,-119)"><g data-paper-data="{&quot;isPaintingLayer&quot;:true}" fill-rule="nonzero" stroke-linejoin="miter" stroke-miterlimit="10" stroke-dasharray="" stroke-dashoffset="0" style="mix-blend-mode: normal"><path d="M178.5,215c0,-23.55912 0,-56.57687 0,-70c0,-11.40038 14.17517,-26 32,-26c23.23738,0 52.6774,0 65,0c11.05457,0 25,13.94544 25,25c0,12.85948 1,47.36041 1,71c0,16.38934 -12.71105,26 -28,26c-21.44032,0 -49.91681,0 -63,0c-13.36436,0 -32,-11.11112 -32,-26z" fill="#5c6161" stroke="none" stroke-width="0" stroke-linecap="butt"/><path d="M271.5,180c0,19.32997 -14.10303,35 -31.5,35c-17.39697,0 -31.5,-15.67003 -31.5,-35c0,-19.32997 14.10303,-35 31.5,-35c17.39697,0 31.5,15.67003 31.5,35z" fill="none" stroke="url(#color-1)" stroke-width="17" stroke-linecap="butt"/><path d="M231.375,180.5h17.0625" fill="none" stroke="#e2e2e2" stroke-width="5" stroke-linecap="round"/><path d="M237,193.66666c0,-1.38071 1.11929,-2.5 2.5,-2.5c1.38071,0 2.5,1.11929 2.5,2.5c0,1.38071 -1.11929,2.5 -2.5,2.5c-1.38071,0 -2.5,-1.11929 -2.5,-2.5z" fill="#e2e2e2" stroke="none" stroke-width="0.5" stroke-linecap="butt"/><path d="M237,167.66666c0,-1.38071 1.11929,-2.5 2.5,-2.5c1.38071,0 2.5,1.11929 2.5,2.5c0,1.38071 -1.11929,2.5 -2.5,2.5c-1.38071,0 -2.5,-1.11929 -2.5,-2.5z" fill="#e2e2e2" stroke="none" stroke-width="0.5" stroke-linecap="butt"/></g></g></svg>